# xmcd CD database file
#
# Track frame offsets:
#	150
#	27766
#	55950
#	92450
#	116765
#	139833
#	165152
#	190649
#
# Disc length: 2798 seconds
#
# Revision: 0
# Processed by: cddbd v1.5.2PL0 Copyright (c) Steve Scherf et al.
# Submitted via: CDex 1.70beta2
#
DISCID=5b0aec08
DTITLE=2857 - 3×3
DYEAR=2005
DGENRE=Jazz
TTITLE0=Won't You Join Us?
TTITLE1=Court
TTITLE2=Dash Down
TTITLE3=Amapola
TTITLE4=That's That
TTITLE5=Anytime I Feel
TTITLE6=Stray Arrow
TTITLE7=6×3
EXTD=YEAR: 2005
EXTT0=
EXTT1=
EXTT2=
EXTT3=
EXTT4=
EXTT5=
EXTT6=
EXTT7=
PLAYORDER=
